<svg height="1134" width="720" xmlns="http://www.w3.org/2000/svg">
<rect height="1134" fill="#555" width="720"></rect>
<text fill="#7f7" font-family="Courier New" font-size="12" xml:space="preserve">
<tspan x="10" y="26">3 megabytes installed</tspan>
<tspan x="10" y="42"></tspan>
<tspan x="10" y="58">node_modules</tspan>
<tspan x="10" y="74">└─┬ ipify@1.1.0 </tspan>
<tspan x="10" y="90">  ├─┬ got@5.7.1 </tspan>
<tspan x="10" y="106">  │ ├─┬ create-error-class@3.0.2 </tspan>
<tspan x="10" y="122">  │ │ └── capture-stack-trace@1.0.0 </tspan>
<tspan x="10" y="138">  │ ├── duplexer2@0.1.4 </tspan>
<tspan x="10" y="154">  │ ├── is-redirect@1.0.0 </tspan>
<tspan x="10" y="170">  │ ├── is-retry-allowed@1.1.0 </tspan>
<tspan x="10" y="186">  │ ├── is-stream@1.1.0 </tspan>
<tspan x="10" y="202">  │ ├── lowercase-keys@1.0.0 </tspan>
<tspan x="10" y="218">  │ ├── node-status-codes@1.0.0 </tspan>
<tspan x="10" y="234">  │ ├── object-assign@4.1.1 </tspan>
<tspan x="10" y="250">  │ ├─┬ parse-json@2.2.0 </tspan>
<tspan x="10" y="266">  │ │ └─┬ error-ex@1.3.1 </tspan>
<tspan x="10" y="282">  │ │   └── is-arrayish@0.2.1 </tspan>
<tspan x="10" y="298">  │ ├─┬ pinkie-promise@2.0.1 </tspan>
<tspan x="10" y="314">  │ │ └── pinkie@2.0.4 </tspan>
<tspan x="10" y="330">  │ ├── read-all-stream@3.1.0 </tspan>
<tspan x="10" y="346">  │ ├─┬ readable-stream@2.2.9 </tspan>
<tspan x="10" y="362">  │ │ ├── buffer-shims@1.0.0 </tspan>
<tspan x="10" y="378">  │ │ ├── core-util-is@1.0.2 </tspan>
<tspan x="10" y="394">  │ │ ├── inherits@2.0.3 </tspan>
<tspan x="10" y="410">  │ │ ├── isarray@1.0.0 </tspan>
<tspan x="10" y="426">  │ │ ├── process-nextick-args@1.0.7 </tspan>
<tspan x="10" y="442">  │ │ ├── string_decoder@1.0.0 </tspan>
<tspan x="10" y="458">  │ │ └── util-deprecate@1.0.2 </tspan>
<tspan x="10" y="474">  │ ├── timed-out@3.1.3 </tspan>
<tspan x="10" y="490">  │ ├── unzip-response@1.0.2 </tspan>
<tspan x="10" y="506">  │ └─┬ url-parse-lax@1.0.0 </tspan>
<tspan x="10" y="522">  │   └── prepend-http@1.0.4 </tspan>
<tspan x="10" y="538">  └─┬ meow@3.7.0 </tspan>
<tspan x="10" y="554">    ├─┬ camelcase-keys@2.1.0 </tspan>
<tspan x="10" y="570">    │ └── camelcase@2.1.1 </tspan>
<tspan x="10" y="586">    ├── decamelize@1.2.0 </tspan>
<tspan x="10" y="602">    ├─┬ loud-rejection@1.6.0 </tspan>
<tspan x="10" y="618">    │ ├─┬ currently-unhandled@0.4.1 </tspan>
<tspan x="10" y="634">    │ │ └── array-find-index@1.0.2 </tspan>
<tspan x="10" y="650">    │ └── signal-exit@3.0.2 </tspan>
<tspan x="10" y="666">    ├── map-obj@1.0.1 </tspan>
<tspan x="10" y="682">    ├── minimist@1.2.0 </tspan>
<tspan x="10" y="698">    ├─┬ normalize-package-data@2.3.6 </tspan>
<tspan x="10" y="714">    │ ├── hosted-git-info@2.4.2 </tspan>
<tspan x="10" y="730">    │ ├─┬ is-builtin-module@1.0.0 </tspan>
<tspan x="10" y="746">    │ │ └── builtin-modules@1.1.1 </tspan>
<tspan x="10" y="762">    │ ├── semver@5.3.0 </tspan>
<tspan x="10" y="778">    │ └─┬ validate-npm-package-license@3.0.1 </tspan>
<tspan x="10" y="794">    │   ├─┬ spdx-correct@1.0.2 </tspan>
<tspan x="10" y="810">    │   │ └── spdx-license-ids@1.2.2 </tspan>
<tspan x="10" y="826">    │   └── spdx-expression-parse@1.0.4 </tspan>
<tspan x="10" y="842">    ├─┬ read-pkg-up@1.0.1 </tspan>
<tspan x="10" y="858">    │ ├─┬ find-up@1.1.2 </tspan>
<tspan x="10" y="874">    │ │ └── path-exists@2.1.0 </tspan>
<tspan x="10" y="890">    │ └─┬ read-pkg@1.1.0 </tspan>
<tspan x="10" y="906">    │   ├─┬ load-json-file@1.1.0 </tspan>
<tspan x="10" y="922">    │   │ ├── graceful-fs@4.1.11 </tspan>
<tspan x="10" y="938">    │   │ ├── pify@2.3.0 </tspan>
<tspan x="10" y="954">    │   │ └─┬ strip-bom@2.0.0 </tspan>
<tspan x="10" y="970">    │   │   └── is-utf8@0.2.1 </tspan>
<tspan x="10" y="986">    │   └── path-type@1.1.0 </tspan>
<tspan x="10" y="1002">    ├─┬ redent@1.0.0 </tspan>
<tspan x="10" y="1018">    │ ├─┬ indent-string@2.1.0 </tspan>
<tspan x="10" y="1034">    │ │ └─┬ repeating@2.0.1 </tspan>
<tspan x="10" y="1050">    │ │   └─┬ is-finite@1.0.2 </tspan>
<tspan x="10" y="1066">    │ │     └── number-is-nan@1.0.1 </tspan>
<tspan x="10" y="1082">    │ └─┬ strip-indent@1.0.1 </tspan>
<tspan x="10" y="1098">    │   └── get-stdin@4.0.1 </tspan>
<tspan x="10" y="1114">    └── trim-newlines@1.0.0</tspan>
</text>
</svg>
