<svg height="1086" width="720" xmlns="http://www.w3.org/2000/svg">
<rect height="1086" fill="#555" width="720"></rect>
<text fill="#7f7" font-family="Courier New" font-size="12" xml:space="preserve">
<tspan x="10" y="26">└─┬ ipify@1.1.0 </tspan>
<tspan x="10" y="42">  ├─┬ got@5.7.1 </tspan>
<tspan x="10" y="58">  │ ├─┬ create-error-class@3.0.2 </tspan>
<tspan x="10" y="74">  │ │ └── capture-stack-trace@1.0.0 </tspan>
<tspan x="10" y="90">  │ ├── duplexer2@0.1.4 </tspan>
<tspan x="10" y="106">  │ ├── is-redirect@1.0.0 </tspan>
<tspan x="10" y="122">  │ ├── is-retry-allowed@1.1.0 </tspan>
<tspan x="10" y="138">  │ ├── is-stream@1.1.0 </tspan>
<tspan x="10" y="154">  │ ├── lowercase-keys@1.0.0 </tspan>
<tspan x="10" y="170">  │ ├── node-status-codes@1.0.0 </tspan>
<tspan x="10" y="186">  │ ├── object-assign@4.1.1 </tspan>
<tspan x="10" y="202">  │ ├─┬ parse-json@2.2.0 </tspan>
<tspan x="10" y="218">  │ │ └─┬ error-ex@1.3.1 </tspan>
<tspan x="10" y="234">  │ │   └── is-arrayish@0.2.1 </tspan>
<tspan x="10" y="250">  │ ├─┬ pinkie-promise@2.0.1 </tspan>
<tspan x="10" y="266">  │ │ └── pinkie@2.0.4 </tspan>
<tspan x="10" y="282">  │ ├── read-all-stream@3.1.0 </tspan>
<tspan x="10" y="298">  │ ├─┬ readable-stream@2.2.6 </tspan>
<tspan x="10" y="314">  │ │ ├── buffer-shims@1.0.0 </tspan>
<tspan x="10" y="330">  │ │ ├── core-util-is@1.0.2 </tspan>
<tspan x="10" y="346">  │ │ ├── inherits@2.0.3 </tspan>
<tspan x="10" y="362">  │ │ ├── isarray@1.0.0 </tspan>
<tspan x="10" y="378">  │ │ ├── process-nextick-args@1.0.7 </tspan>
<tspan x="10" y="394">  │ │ ├── string_decoder@0.10.31 </tspan>
<tspan x="10" y="410">  │ │ └── util-deprecate@1.0.2 </tspan>
<tspan x="10" y="426">  │ ├── timed-out@3.1.3 </tspan>
<tspan x="10" y="442">  │ ├── unzip-response@1.0.2 </tspan>
<tspan x="10" y="458">  │ └─┬ url-parse-lax@1.0.0 </tspan>
<tspan x="10" y="474">  │   └── prepend-http@1.0.4 </tspan>
<tspan x="10" y="490">  └─┬ meow@3.7.0 </tspan>
<tspan x="10" y="506">    ├─┬ camelcase-keys@2.1.0 </tspan>
<tspan x="10" y="522">    │ └── camelcase@2.1.1 </tspan>
<tspan x="10" y="538">    ├── decamelize@1.2.0 </tspan>
<tspan x="10" y="554">    ├─┬ loud-rejection@1.6.0 </tspan>
<tspan x="10" y="570">    │ ├─┬ currently-unhandled@0.4.1 </tspan>
<tspan x="10" y="586">    │ │ └── array-find-index@1.0.2 </tspan>
<tspan x="10" y="602">    │ └── signal-exit@3.0.2 </tspan>
<tspan x="10" y="618">    ├── map-obj@1.0.1 </tspan>
<tspan x="10" y="634">    ├── minimist@1.2.0 </tspan>
<tspan x="10" y="650">    ├─┬ normalize-package-data@2.3.6 </tspan>
<tspan x="10" y="666">    │ ├── hosted-git-info@2.4.1 </tspan>
<tspan x="10" y="682">    │ ├─┬ is-builtin-module@1.0.0 </tspan>
<tspan x="10" y="698">    │ │ └── builtin-modules@1.1.1 </tspan>
<tspan x="10" y="714">    │ ├── semver@5.3.0 </tspan>
<tspan x="10" y="730">    │ └─┬ validate-npm-package-license@3.0.1 </tspan>
<tspan x="10" y="746">    │   ├─┬ spdx-correct@1.0.2 </tspan>
<tspan x="10" y="762">    │   │ └── spdx-license-ids@1.2.2 </tspan>
<tspan x="10" y="778">    │   └── spdx-expression-parse@1.0.4 </tspan>
<tspan x="10" y="794">    ├─┬ read-pkg-up@1.0.1 </tspan>
<tspan x="10" y="810">    │ ├─┬ find-up@1.1.2 </tspan>
<tspan x="10" y="826">    │ │ └── path-exists@2.1.0 </tspan>
<tspan x="10" y="842">    │ └─┬ read-pkg@1.1.0 </tspan>
<tspan x="10" y="858">    │   ├─┬ load-json-file@1.1.0 </tspan>
<tspan x="10" y="874">    │   │ ├── graceful-fs@4.1.11 </tspan>
<tspan x="10" y="890">    │   │ ├── pify@2.3.0 </tspan>
<tspan x="10" y="906">    │   │ └─┬ strip-bom@2.0.0 </tspan>
<tspan x="10" y="922">    │   │   └── is-utf8@0.2.1 </tspan>
<tspan x="10" y="938">    │   └── path-type@1.1.0 </tspan>
<tspan x="10" y="954">    ├─┬ redent@1.0.0 </tspan>
<tspan x="10" y="970">    │ ├─┬ indent-string@2.1.0 </tspan>
<tspan x="10" y="986">    │ │ └─┬ repeating@2.0.1 </tspan>
<tspan x="10" y="1002">    │ │   └─┬ is-finite@1.0.2 </tspan>
<tspan x="10" y="1018">    │ │     └── number-is-nan@1.0.1 </tspan>
<tspan x="10" y="1034">    │ └─┬ strip-indent@1.0.1 </tspan>
<tspan x="10" y="1050">    │   └── get-stdin@4.0.1 </tspan>
<tspan x="10" y="1066">    └── trim-newlines@1.0.0</tspan>
</text>
</svg>
